<?xml version="1.0" encoding="UTF-8" standalone="no"?><!DOCTYPE svg PUBLIC "-//W3C//DTD SVG 1.1//EN" "http://www.w3.org/Graphics/SVG/1.1/DTD/svg11.dtd"><svg width="100%" height="100%" viewBox="0 0 2845 2845" version="1.1" xmlns="http://www.w3.org/2000/svg" xmlns:xlink="http://www.w3.org/1999/xlink" xml:space="preserve" xmlns:serif="http://www.serif.com/" style="fill-rule:evenodd;clip-rule:evenodd;stroke-linejoin:round;stroke-miterlimit:2;"><path id="path" d="M1422.22,0c-786.044,0 -1422.23,636.089 -1422.22,1422.22c0,786.061 636.094,1422.22 1422.22,1422.22c786.045,0 1422.23,-636.088 1422.22,-1422.22c0,-786.061 -636.094,-1422.22 -1422.22,-1422.22Zm887.811,2310.04c-489.539,489.539 -1286.08,489.539 -1775.62,-0l0,-0.006c-489.539,-489.539 -489.539,-1286.08 0,-1775.62c490.7,-490.694 1284.89,-490.728 1775.63,0.006c489.533,489.539 489.533,1286.07 -0.006,1775.62Z" style="fill:#5f30e2;fill-rule:nonzero;"/><path id="path_1" d="M2255.84,805.017c-130.789,-130.795 -343.083,-130.184 -473.095,1.7l-518.888,526.383l-203.845,-203.844c-130.272,-130.273 -341.117,-130.295 -471.405,-0c-129.967,129.961 -129.967,341.433 -0,471.405c337.716,337.711 241.094,241.311 435.766,435.867c133.934,133.866 351.811,133.794 485.667,-0.067c185.85,-185.85 747.505,-761.744 747.505,-761.744c128.089,-129.961 127.323,-340.667 -1.705,-469.7Zm-116.995,352.705c-627.483,636.656 -746.655,760.889 -746.655,760.889c-68.917,68.917 -181.067,68.928 -250,0.033c-0,0 -406.55,-406.65 -435.733,-435.833c-64.984,-64.983 -64.984,-170.722 -0,-235.705c65.144,-65.145 170.555,-65.139 235.7,-0l263.2,263.194c32.716,32.717 85.811,32.506 118.272,-0.422l577.805,-586.156c64.934,-65.866 171.089,-66.316 236.55,-0.85c64.517,64.511 64.906,169.867 0.861,234.85Z" style="fill:#5f30e2;fill-rule:nonzero;"/></svg>