<?xml version="1.0" encoding="UTF-8" standalone="no"?><!DOCTYPE svg PUBLIC "-//W3C//DTD SVG 1.1//EN" "http://www.w3.org/Graphics/SVG/1.1/DTD/svg11.dtd"><svg width="100%" height="100%" viewBox="0 0 2845 2845" version="1.1" xmlns="http://www.w3.org/2000/svg" xmlns:xlink="http://www.w3.org/1999/xlink" xml:space="preserve" xmlns:serif="http://www.serif.com/" style="fill-rule:evenodd;clip-rule:evenodd;stroke-linejoin:round;stroke-miterlimit:2;"><path id="path" d="M1422.22,0c-786.055,0 -1422.22,636.111 -1422.22,1422.22c0,786.056 636.111,1422.22 1422.22,1422.22c786.056,0 1422.22,-636.111 1422.22,-1422.22c0,-786.055 -636.111,-1422.22 -1422.22,-1422.22Zm-338.411,2022.17c0,-0 -491.233,-491.434 -526.544,-526.678c-78.55,-78.55 -78.55,-206.372 -0,-284.856c78.75,-78.75 206.105,-78.75 284.855,0l318.022,318.023c39.545,39.544 103.723,39.272 142.934,-0.473l698.278,-708.344c78.483,-79.622 206.711,-80.161 285.861,-1.006c77.944,77.945 78.416,205.234 1.005,283.784c-758.294,769.366 -902.3,919.483 -902.3,919.483c-83.25,83.244 -218.794,83.317 -302.111,0.067Z" style="fill:#5f30e2;fill-rule:nonzero;"/></svg>