<?xml version="1.0" encoding="UTF-8" standalone="no"?><!DOCTYPE svg PUBLIC "-//W3C//DTD SVG 1.1//EN" "http://www.w3.org/Graphics/SVG/1.1/DTD/svg11.dtd"><svg width="100%" height="100%" viewBox="0 0 2845 2845" version="1.1" xmlns="http://www.w3.org/2000/svg" xmlns:xlink="http://www.w3.org/1999/xlink" xml:space="preserve" xmlns:serif="http://www.serif.com/" style="fill-rule:evenodd;clip-rule:evenodd;stroke-linejoin:round;stroke-miterlimit:2;"><path id="path_1" d="M2355.56,355.556l-488.889,-0l-0,-88.889c-0,-147.039 -119.628,-266.667 -266.667,-266.667l-355.556,0c-147.038,0 -266.666,119.628 -266.666,266.667l-0,88.889l-488.889,-0c-122.533,-0 -222.222,99.688 -222.222,222.222l-0,311.111c-0,49.089 39.8,88.889 88.889,88.889l48.577,-0l76.795,1612.68c6.783,142.422 123.783,253.983 266.361,253.983l1349.87,0c142.583,0 259.583,-111.561 266.361,-253.983l76.794,-1612.68l48.578,-0c49.089,-0 88.889,-39.8 88.889,-88.889l-0,-311.111c-0,-122.534 -99.689,-222.222 -222.222,-222.222Zm-1200,-88.889c-0,-49.011 39.877,-88.889 88.888,-88.889l355.556,-0c49.011,-0 88.889,39.878 88.889,88.889l-0,88.889l-533.333,-0l-0,-88.889Zm-711.112,311.111c0,-24.506 19.939,-44.445 44.445,-44.445l1866.67,0c24.505,0 44.444,19.939 44.444,44.445l0,222.222l-1955.56,-0l0,-222.222Zm1741.5,2004.23c-2.261,47.472 -41.261,84.661 -88.783,84.661l-1349.87,-0c-47.528,-0 -86.528,-37.189 -88.783,-84.661l-76.395,-1604.23l1680.22,-0l-76.394,1604.23Z" style="fill:#fc3e3e;fill-rule:nonzero;"/><path id="path_2" d="M1422.22,2488.89c49.089,-0 88.889,-39.8 88.889,-88.889l0,-1155.56c0,-49.088 -39.8,-88.888 -88.889,-88.888c-49.089,-0 -88.889,39.8 -88.889,88.888l0,1155.56c0,49.089 39.795,88.889 88.889,88.889Zm444.445,-0c49.089,-0 88.889,-39.8 88.889,-88.889l-0,-1155.56c-0,-49.088 -39.8,-88.888 -88.889,-88.888c-49.089,-0 -88.889,39.8 -88.889,88.888l-0,1155.56c-0,49.089 39.794,88.889 88.889,88.889Zm-888.889,-0c49.089,-0 88.889,-39.8 88.889,-88.889l-0,-1155.56c-0,-49.088 -39.8,-88.888 -88.889,-88.888c-49.089,-0 -88.889,39.8 -88.889,88.888l-0,1155.56c-0,49.089 39.794,88.889 88.889,88.889Z" style="fill:#fc3e3e;fill-rule:nonzero;"/></svg>