<?xml version="1.0" encoding="UTF-8" standalone="no"?><!DOCTYPE svg PUBLIC "-//W3C//DTD SVG 1.1//EN" "http://www.w3.org/Graphics/SVG/1.1/DTD/svg11.dtd"><svg width="100%" height="100%" viewBox="0 0 2845 2845" version="1.1" xmlns="http://www.w3.org/2000/svg" xmlns:xlink="http://www.w3.org/1999/xlink" xml:space="preserve" xmlns:serif="http://www.serif.com/" style="fill-rule:evenodd;clip-rule:evenodd;stroke-linejoin:round;stroke-miterlimit:2;"><path id="path" d="M2355.56,355.556l-488.889,-0l-0,-88.889c-0,-147.278 -119.389,-266.667 -266.667,-266.667l-355.556,0c-147.277,0 -266.666,119.389 -266.666,266.667l-0,88.889l-488.889,-0c-122.728,-0 -222.222,99.494 -222.222,222.222l-0,177.778c-0,49.094 39.794,88.888 88.889,88.888l2133.33,0c49.094,0 88.889,-39.794 88.889,-88.888l-0,-177.778c-0,-122.728 -99.495,-222.222 -222.222,-222.222Zm-1200,-88.889c-0,-49 39.888,-88.889 88.888,-88.889l355.556,-0c49,-0 88.889,39.889 88.889,88.889l-0,88.889l-533.333,-0l-0,-88.889Zm-720.2,755.555c-15.862,0 -28.5,13.256 -27.745,29.1l73.333,1539.12c6.778,142.445 123.778,254 266.334,254l1349.89,0c142.555,0 259.555,-111.555 266.333,-254l73.333,-1539.12c0.756,-15.844 -11.883,-29.1 -27.744,-29.1l-1973.73,0Zm1342.42,222.222c-0,-49.111 39.778,-88.888 88.889,-88.888c49.111,-0 88.889,39.777 88.889,88.888l-0,1155.56c-0,49.111 -39.778,88.889 -88.889,88.889c-49.111,-0 -88.889,-39.778 -88.889,-88.889l-0,-1155.56Zm-444.445,0c0,-49.111 39.778,-88.888 88.889,-88.888c49.111,-0 88.889,39.777 88.889,88.888l0,1155.56c0,49.111 -39.778,88.889 -88.889,88.889c-49.111,-0 -88.889,-39.778 -88.889,-88.889l0,-1155.56Zm-444.444,0c-0,-49.111 39.778,-88.888 88.889,-88.888c49.111,-0 88.889,39.777 88.889,88.888l-0,1155.56c-0,49.111 -39.778,88.889 -88.889,88.889c-49.111,-0 -88.889,-39.778 -88.889,-88.889l-0,-1155.56Z" style="fill:#fc3e3e;fill-rule:nonzero;"/></svg>