<?xml version="1.0" encoding="UTF-8" standalone="no"?><!DOCTYPE svg PUBLIC "-//W3C//DTD SVG 1.1//EN" "http://www.w3.org/Graphics/SVG/1.1/DTD/svg11.dtd"><svg width="100%" height="100%" viewBox="0 0 2434 2434" version="1.1" xmlns="http://www.w3.org/2000/svg" xmlns:xlink="http://www.w3.org/1999/xlink" xml:space="preserve" xmlns:serif="http://www.serif.com/" style="fill-rule:evenodd;clip-rule:evenodd;stroke-linecap:round;stroke-linejoin:round;stroke-miterlimit:1.5;"><path d="M371.795,436.224c214.897,-230.312 517.203,-363.451 836.316,-363.451c631.332,0 1143.89,512.562 1143.89,1143.89c-0,631.332 -512.562,1143.89 -1143.89,1143.89c-366.166,0 -710.202,-175.295 -925.429,-471.53l311.689,-226.455c142.737,196.461 370.901,312.716 613.74,312.716c418.697,0 758.625,-339.928 758.625,-758.624c0,-418.697 -339.928,-758.625 -758.625,-758.625c-218.41,-0 -424.948,94.041 -568.135,255.891l253.737,262.753l-764.733,93.031l-3.207,-888.256l246.022,254.763Z" style="fill:none;stroke:#5f30e2;stroke-width:138.89px;"/></svg>